<svg width="1600" height="1200" viewBox="0 0 1600 1200" fill="none" xmlns="http://www.w3.org/2000/svg">
<path fill-rule="evenodd" clip-rule="evenodd" d="M1577.35 786.929C1550.85 796.69 1535.74 848.029 1526.64 870.919C1508.65 916.182 1493.49 961.967 1477.76 1007.59C1462.03 1053.2 1446.42 1098.89 1427.3 1143.89C1414.89 1173.11 1401.3 1207.07 1377.63 1232.44C1327.18 1286.49 1300.21 1183.79 1289.49 1158.55C1262.2 1094.34 1236.45 1018.67 1181.87 969.035C1149.29 939.407 1111.69 936.549 1067.5 961.542C1053.12 969.647 1038.25 983.562 1021.03 982.629C1002.64 981.633 987.763 969.354 976.883 958.631C937.226 919.508 914.834 866.08 893.805 817.068C871.071 764.239 852.154 709.446 832.414 655.958C824.045 633.278 805.448 613.178 789.479 594.491C768.546 569.993 746.427 546.307 724.666 522.376C676.852 469.708 627.006 415.646 596.756 352.521C577.81 312.989 566.942 266.202 590.357 221.613C602.114 199.226 625.197 181.347 645.043 163.654C669.011 142.258 693.411 121.206 716.674 99.2476C791.596 28.5166 858.515 -57.8912 830.51 -148.415C826.271 -162.109 819.318 -174.541 814.042 -187.786C810.69 -196.223 810.443 -204.728 820.179 -211.862C844.592 -229.773 896.827 -220.416 922.236 -218.032C977.858 -212.808 1032.4 -203.938 1087.53 -197.1C1123.99 -192.571 1175.9 -180.656 1213.36 -193.965C1246.73 -205.825 1257.59 -250.846 1266.79 -276.556C1275.41 -300.644 1284.68 -341.982 1315.17 -355.374C1329.95 -361.867 1345.47 -358.255 1358.31 -353.258C1380.79 -344.486 1399.08 -331.612 1423.41 -325.216C1463.32 -314.733 1513.88 -312.244 1555.74 -330.875C1584.74 -343.786 1599.17 -364.79 1611.36 -389.266C1616.48 -399.554 1619.83 -407.607 1632.4 -412.628C1652.36 -420.612 1676.09 -421.91 1696.75 -423.385C1770.71 -428.675 1845.37 -425.133 1916.84 -416.977C1952.56 -412.903 1988.63 -407.584 2021.69 -396.979C2043.39 -390.05 2069.97 -379.728 2077.22 -359.748C2085.64 -336.625 2084.36 -308.45 2084.92 -283.202C2085.97 -236.043 2084.61 -188.582 2082.76 -141.131C2078.48 -31.3897 2070.7 78.6047 2059.44 188.852C2051.45 266.527 2043.92 345.621 2023.94 423.186C2019.99 438.334 2014.4 453.307 2007.26 467.904C1999.82 483.427 1999.76 499.352 2001.09 514.996C2009.34 612.086 2062.94 702.231 2106.76 786.79C2117.88 808.255 2129.01 829.714 2139.28 851.561C2148.1 870.342 2161.61 891.758 2160.91 913.388C2159.54 956.003 2092.8 943.476 2065.42 937.875C1969.02 918.153 1879.64 879.974 1790.53 846.867C1748.11 831.145 1705.7 815.183 1661.99 801.625C1639.26 794.555 1600.58 778.372 1577.35 786.929Z" stroke="#5BE7C3" stroke-width="5"/>
<path fill-rule="evenodd" clip-rule="evenodd" d="M1566.81 771.876C1544.12 796.931 1532.84 830.512 1521.17 859.225C1504.36 900.549 1489.47 942.281 1473.65 983.81C1458.68 1023.08 1443.44 1062.52 1424.16 1100.85C1412.4 1124.23 1398.71 1153.18 1375.15 1170.8C1324.09 1209.01 1298.87 1112.62 1288.99 1090.16C1264.45 1034.3 1240 969.747 1190.53 927.813C1159.64 901.629 1123.42 899.435 1082.56 922.289C1068.43 930.193 1057.2 939.252 1040.23 939.135C1020.59 939.003 1004.43 928.146 991.88 917.364C952.578 883.593 929.247 835.258 908.282 790.775C886.623 744.82 865.524 696.405 851.964 649.234C846.536 630.373 831.625 611.816 819.474 595.617C800.767 570.697 780.856 546.538 761.58 521.982C722.391 472.082 683.348 420.463 659.86 362.262C642.902 320.243 634.722 272.975 652.634 226.363C670.806 179.117 713.426 145.577 752.207 108.929C819.267 45.6068 899.116 -36.0151 886.992 -121.632C885.157 -134.616 879.556 -145.697 875.799 -157.967C873.863 -164.275 872.303 -171.69 878.61 -177.542C894.983 -192.734 938.476 -183.266 956.027 -181.14C1004.53 -175.268 1051.96 -166.085 1100.04 -158.931C1138.21 -153.245 1181.61 -144.224 1221.84 -151.292C1270.65 -159.869 1283.98 -224.768 1309.49 -255.168C1353.72 -307.874 1407.91 -258.241 1445.6 -237.764C1488.87 -214.247 1555.21 -205.979 1591.32 -254.322C1605.12 -272.812 1610.6 -291.376 1632.34 -305.3C1666.32 -327.075 1710.9 -336.188 1749.94 -342.766C1808.63 -352.631 1868.88 -356.367 1926.53 -352.62C1967.81 -349.927 2033.06 -344.281 2042.71 -304.747C2049.23 -278.143 2048.5 -248.416 2048.55 -220.217C2048.62 -177.997 2046.64 -135.56 2044 -93.1022C2037.99 4.86972 2027.86 103.283 2013.09 201.529C2003 268.567 1935.34 469.948 1935.17 483.308C1934.69 523.139 1951.51 562.104 1966.7 597.459C1986.9 644.49 2011.34 689.703 2035.26 735.067C2046.62 756.667 2058.72 778.131 2068.56 800.424C2075.56 816.291 2084.26 837.309 2077.91 855.751C2065.53 891.744 2002.76 879.511 1976.31 874.63C1895.24 859.697 1819.34 831.107 1743.26 806.087C1705.92 793.814 1668.49 781.175 1629.58 771.856C1613.87 768.103 1580.81 756.396 1566.81 771.876Z" stroke="#5ACEF2" stroke-width="5"/>
<path fill-rule="evenodd" clip-rule="evenodd" d="M1556.93 765.596C1515.48 826.561 1494.04 897.686 1464.67 963.025C1449.92 995.821 1434.59 1029 1414.12 1060.11C1403.48 1076.29 1389.97 1096.57 1370.38 1106.07C1318 1131.48 1294.78 1044.78 1283.56 1020.39C1261.85 973.229 1238.82 919.412 1195 885.413C1168.21 864.644 1135.51 861.516 1100.72 879.883C1085.28 888.031 1072.74 896.532 1054.71 896.63C1036.44 896.729 1020.64 888.827 1007.65 879.734C970.292 853.611 946.565 812.885 926.334 775.528C902.65 731.686 882.998 685.982 867.537 638.785C853.975 597.456 824.467 562.153 800.252 525.793C768.181 477.623 737.386 427.903 719.4 373.213C705.203 330.017 700.115 283.125 714.941 236.384C730.07 188.865 764.807 150.963 803.732 114.021C862.577 58.1779 942.469 -13.8037 944.745 -90.1585C945.084 -101.266 942.22 -110.461 939.252 -120.71C937.808 -125.688 935.625 -131.998 940.931 -136.659C953.709 -147.876 990.375 -136.947 1002.61 -134.626C1041.68 -127.22 1079.88 -117.683 1118.69 -109.646C1154.92 -102.144 1193 -93.4648 1231.79 -94.734C1293.58 -96.7695 1304.85 -166.26 1358.05 -183.792C1391.08 -194.672 1423.84 -177.563 1447.43 -163.161C1476.45 -145.42 1502.65 -114.2 1543.57 -114.925C1574.04 -115.464 1584.49 -135.824 1600.94 -154.565C1628.82 -186.321 1675.55 -204.802 1716.58 -217.488C1772.03 -234.637 1831.11 -244.294 1887.66 -244.711C1913.29 -244.902 1940.5 -243.612 1963.42 -235.476C1984.91 -227.857 1993.83 -216.494 1997.08 -197.044C2007.01 -137.496 1998.61 -70.6636 1992.26 -7.78397C1984.28 71.2217 1972.59 150.529 1955.69 229.488C1944.17 283.331 1931.42 338.744 1907.46 391.042C1901.21 404.674 1894.19 418.86 1883.81 430.944C1876.01 440.06 1868.77 445.363 1866.56 456.746C1860.05 490.484 1878.41 527.429 1890.94 556.477C1910.95 602.928 1935.45 647.489 1959.2 692.251C1973.09 718.362 2004.13 765.772 1982.93 798.373C1964.62 826.517 1913.31 819.275 1886.84 815.667C1819.91 806.535 1756.77 786.433 1693.17 769.611C1664.02 761.901 1634.46 753.621 1603.74 749.674C1595.9 748.661 1585.18 746.373 1576.83 748.349C1567.26 750.636 1562.05 758.102 1556.93 765.596Z" stroke="#5BE7C3" stroke-width="5"/>
<path fill-rule="evenodd" clip-rule="evenodd" d="M1556.75 748.358C1520.69 803.876 1496.28 863.831 1464.41 920.942C1450.12 946.549 1434.88 972.705 1414.44 995.691C1403.45 1008.05 1389.09 1022.16 1371.35 1026.31C1320.43 1038.23 1299.69 967.524 1286.67 940.648C1267.38 900.694 1245.8 854.579 1206.15 827.475C1180.17 809.72 1151.44 809.973 1120.26 826.404C1086.8 844.034 1057.33 842.568 1028.77 825.214C992.984 803.448 968.841 768.32 948.733 735.243C924.549 695.378 904.922 653.237 890.093 609.334C875.674 566.636 852.087 528.769 831.149 488.76C803.395 435.711 778.769 379.498 773.989 318.798C769.829 265.95 783.383 211.913 816.919 162.897C851.911 111.714 905.449 73.1942 947.798 26.561C974.213 -2.52516 1008.71 -42.2328 1009.71 -78.9847C1010.05 -91.2426 997.227 -108.691 1021.18 -107.717C1034.88 -107.164 1048.67 -101.814 1061.04 -98.1267C1081.04 -92.1703 1100.75 -85.6691 1120.6 -79.4371C1162.92 -66.1564 1206.59 -51.3367 1252.7 -46.619C1310.75 -40.6605 1335.79 -90.0389 1387.4 -103.917C1415.17 -111.389 1442.25 -103.87 1465.04 -93.7851C1479.79 -87.2647 1493.45 -79.2219 1506.55 -70.7068C1520.24 -61.8152 1532.55 -49.877 1548.38 -43.5363C1570.9 -34.4906 1588.6 -48.4191 1609.52 -59.2652C1646.27 -78.3338 1685.06 -93.7029 1725.01 -105.024C1773.97 -118.908 1826 -128.611 1875.6 -127.213C1894.9 -126.674 1915.87 -124.721 1931.76 -116.271C1947.65 -107.82 1951.61 -94.5379 1953.44 -78.8953C1958.93 -32.5125 1951.01 18.6437 1943.56 67.2482C1934.23 128.084 1921.26 189.112 1903.21 249.458C1890.74 291.113 1876.36 333.589 1853.26 373.049C1846.54 384.528 1838.99 395.868 1829.72 406.192C1823.36 413.277 1814 419.242 1810.29 427.505C1798.72 453.342 1818.2 489.67 1827.43 511.675C1845.85 555.592 1872.06 595.874 1890.78 639.613C1901.01 663.483 1918.3 700.399 1899.5 727.505C1881.82 752.993 1838.8 751.396 1812.2 749.686C1759.92 746.333 1710.09 734.401 1659.51 725.857C1638.71 722.351 1616.76 718.196 1594.76 719.026C1575.16 719.779 1566 734.128 1556.75 748.358Z" stroke="#5ACEF2" stroke-width="5"/>
<path fill-rule="evenodd" clip-rule="evenodd" d="M1554.21 738.848C1521.34 784.558 1495.6 834.605 1462.08 880.789C1442.46 907.827 1409.72 954.002 1368.09 953.77C1322.35 953.538 1302.34 901.985 1288.16 873.137C1271.29 838.802 1250.73 798.751 1214.43 777.324C1202.95 770.546 1189.41 766.138 1174.27 767.695C1158.06 769.359 1146.56 778.176 1131.89 784.119C1101.11 796.583 1070.53 790.441 1045.99 776.513C1011.3 756.832 986.827 725.342 966.551 694.563C943.621 659.678 925.041 622.492 911.078 583.537C897.706 546.318 883.318 509.915 868.618 473.137C849.365 425.05 833.906 374.807 832.498 321.876C831.122 269.731 844.87 216.863 875.636 168.066C905.661 120.459 948.816 80.0043 993.91 41.9169C1019.51 20.3024 1056.99 -14.1159 1062.48 -45.4516C1064.93 -59.3883 1060.36 -70.5256 1082.1 -64.5656C1109.46 -57.0592 1134.48 -42.6246 1159.59 -31.5319C1195.82 -15.5342 1232.81 0.918703 1272.61 10.9302C1298.02 17.3246 1320.04 16.2804 1346.09 5.72297C1365.93 -2.33055 1384.61 -12.9073 1405.41 -18.5673C1454.22 -31.8604 1497.84 -13.1093 1537.93 2.91152C1563.71 13.2191 1584.33 23.6983 1615.27 22.576C1651.84 21.257 1689.04 12.7479 1725.58 7.46081C1765.71 1.65793 1807.77 -3.48649 1846.8 1.52138C1881.54 5.97707 1901.34 19.569 1903.47 49.9254C1906.79 97.2693 1891.92 150.54 1877.79 198.788C1863.41 247.893 1845.25 297.621 1817.8 343.969C1802.98 368.994 1782.46 389.856 1765.36 413.512C1743.9 443.248 1770.64 483.118 1782.53 508.27C1802.26 550.023 1881.72 675.077 1780.07 697.866C1737.65 707.379 1692.74 700.368 1651.49 698.301C1634.38 697.452 1613.28 694.887 1595.76 699.663C1576.67 704.864 1564.12 725.1 1554.21 738.848Z" stroke="#FF8062" stroke-width="5"/>
<path fill-rule="evenodd" clip-rule="evenodd" d="M1552.2 721.759C1520.86 758.95 1493.35 799.824 1457.66 834.938C1434.56 857.699 1402.06 883.623 1366.78 877.947C1326.98 871.538 1304.45 833.655 1289.35 805.291C1273.8 776.066 1256.76 740.621 1222.51 724.576C1211.6 719.475 1198.42 716.794 1185.06 720.262C1172.25 723.583 1161.09 731.435 1148.08 734.913C1118.88 742.731 1090.44 737.156 1066.93 725.182C997.369 689.763 957.19 613.99 932.33 549.757C919.891 517.605 911.171 483.029 901.751 449.541C889.528 406.086 880.917 361.244 882.645 314.929C886.305 216.461 942.738 130.815 1024.38 55.6271C1050.08 31.9629 1079.35 10.3605 1096.49 -18.3054C1105.34 -33.0908 1115.19 -34.1466 1130.45 -27.8828C1154.31 -18.0869 1175.25 -3.16649 1196.8 9.50145C1227.44 27.5203 1258.61 45.9751 1292.38 59.4836C1315.66 68.7944 1336.64 73.7825 1364.21 67.5804C1383.86 63.1601 1402.79 55.6318 1422.21 50.206C1459.11 39.9049 1498.18 36.4008 1534.05 42.3133C1562.49 47.0321 1589.7 55.0686 1616.11 64.0007C1650.49 75.5968 1684.09 83.7554 1721.57 88.4203C1771.2 94.6285 1859.32 96.6601 1857.27 154.573C1855.01 218.452 1816.75 291.475 1774.29 347.386C1760.03 366.161 1740.77 384.322 1732.93 405.499C1721.22 437.191 1730.88 461.505 1741.45 490.282C1757.26 533.371 1802.85 623.064 1724.36 652.78C1693.27 664.551 1659.69 664.226 1627.71 669.859C1591.88 676.127 1573.54 696.38 1552.2 721.759Z" stroke="#F1B170" stroke-width="5"/>
<path fill-rule="evenodd" clip-rule="evenodd" d="M1549.56 703.524C1506.11 744.842 1439.64 826.23 1368.23 808.72C1330.5 799.475 1306.03 767.738 1288.28 740.106C1273.97 717.88 1261.27 689.413 1231.3 679.59C1209.27 672.371 1186.51 687.42 1163.18 690.071C1134.26 693.352 1107.16 686.586 1084.24 674.492C1020.18 640.7 980.639 575.69 955.576 516.115C929.553 454.24 918.754 379.558 925.003 310.145C932.806 223.593 978.371 144.293 1047.5 75.2729C1060.26 62.5353 1073.66 50.3044 1086.72 37.7845C1095.47 29.3786 1103.07 18.8709 1112.72 11.2444C1128.81 -1.46291 1146.36 0.221358 1162.44 7.30774C1185.59 17.4952 1205.15 33.2374 1224.85 47.2856C1251.81 66.4918 1278.65 86.3841 1308.01 102.691C1327.76 113.642 1348.85 124.95 1375.08 121.893C1392.98 119.811 1410.72 114.274 1427.72 107.926C1464.18 94.3108 1494.33 85.1191 1532.91 86.9156C1596.28 89.9177 1658.61 107.315 1713.36 129.731C1756.33 147.324 1823.38 175.501 1817.36 226.113C1811.99 271.509 1773.89 310.788 1745.68 349.677C1731.97 368.584 1720.39 388.433 1713.35 409.36C1704.49 435.744 1704.65 457.484 1710.8 482.683C1721.15 525.095 1742.36 587.005 1687.26 621.335C1666.93 634.007 1643.14 639.655 1621.72 650.217C1593.37 664.146 1571.47 682.681 1549.56 703.524Z" stroke="#5BE7C3" stroke-width="5"/>
<path fill-rule="evenodd" clip-rule="evenodd" d="M1542.94 679.396C1492.27 716 1428.73 762.988 1364.41 742.532C1333.25 732.624 1310.05 711.182 1290.59 689.339C1276.65 673.697 1263.93 645.43 1237.45 642.365C1217.98 640.126 1194.83 647.26 1174.46 646.234C1146.46 644.829 1120.82 636.595 1098.54 624.093C1040.5 591.527 1002.27 535.514 977.261 480.844C922.935 362.05 955.606 209.166 1060.08 96.9917C1091.22 63.5486 1122.76 23.5322 1173.31 40.86C1228.48 59.7904 1267.33 104.411 1312.58 134.499C1329.87 145.998 1351.05 160.955 1375.18 162.097C1389.69 162.789 1405.61 157.402 1419.55 152.6C1455.07 140.39 1487.68 131.24 1524.84 130.883C1582.26 130.32 1639.63 141.868 1689.89 160.321C1733.73 176.415 1787.82 202.429 1778.61 252.326C1771.5 290.599 1739.34 324.936 1719.19 359.999C1696.74 399.028 1687.19 440.665 1690 481.549C1692.76 521.311 1700.16 563.332 1663.13 598.294C1650.42 610.287 1633.38 624.189 1617.59 632.7C1591.52 646.648 1566.56 662.265 1542.94 679.396V679.396Z" stroke="#FF8062" stroke-width="5"/>
<path fill-rule="evenodd" clip-rule="evenodd" d="M1533.84 653.149C1479.48 681.336 1420.29 703.815 1362.77 685.711C1335.93 677.259 1313.63 662.347 1292.64 646.697C1277.19 635.183 1263.12 622.608 1242.72 617.237C1223.83 612.257 1203.42 610.672 1184.26 606.198C1158.9 600.329 1135.33 590.837 1114.48 578.087C1062.27 546.101 1025.58 497.428 1000.69 447.144C988.637 422.807 977.152 395.826 975.682 367.829C974.255 340.793 977.246 312.458 982.8 285.1C994.58 226.951 1022.18 170.225 1065.17 120.74C1094.65 86.8042 1126.54 62.6506 1173.68 75.5419C1226.81 90.0781 1267.19 128.496 1308.68 157.173C1337.14 176.842 1366.39 199.849 1408.15 190.256C1441.39 182.627 1472.74 174.844 1506.51 174.107C1556.37 173.156 1604.66 180.867 1648.51 196.781C1688.49 211.378 1726.32 234.486 1723.37 277.256C1721.01 311.15 1700.17 344.365 1688.66 377.417C1675.78 414.27 1674.34 450.135 1676.01 486.743C1677.47 519.655 1673.32 552.656 1649.97 582.771C1645.2 588.931 1639.96 595.487 1634.13 601.021C1626.69 608.08 1617.82 610.971 1608.19 615.331C1582.76 626.811 1558.44 640.395 1533.84 653.149Z" stroke="#F1B170" stroke-width="5"/>
<path fill-rule="evenodd" clip-rule="evenodd" d="M1518.69 626.05C1464.27 645.142 1409.16 653.105 1356.27 639.225C1333.65 633.296 1313.34 623.779 1291.77 616.045C1274.39 609.823 1258.18 603.866 1242.54 595.129C1205.5 574.386 1162.86 562.091 1127.97 538.415C1081.36 506.827 1046.35 463.954 1021.76 417.717C1009.75 395.142 999.636 370.987 994.657 345.537C990.379 323.678 994.574 299.727 999.554 277.112C1009.3 232.792 1029.06 186.015 1061.64 147.683C1133.47 63.1728 1236.31 140.813 1293.87 178.928C1320.34 196.455 1354.23 225.625 1392.95 222.658C1420.61 220.543 1447.7 215.528 1475.32 215.718C1549.51 216.23 1644.31 237.577 1658 307.025C1663.87 336.74 1655.44 368.836 1653.07 399.429C1650.64 430.932 1653.95 461.325 1656.66 492.157C1659.21 520.971 1656.84 545.534 1636.25 572.238C1626.42 584.997 1610.86 589.85 1595.44 596.28C1570.11 606.834 1544.47 616.991 1518.69 626.05Z" stroke="#5BE7C3" stroke-width="5"/>
<path fill-rule="evenodd" clip-rule="evenodd" d="M1502.22 602.374C1416.57 621.59 1312.98 614.88 1244.49 574.51C1163.92 527.023 1090.11 470.67 1047.09 394.555C1027.14 359.267 1009.07 319.233 1016.68 276.314C1022.46 243.654 1034.38 203.826 1061.77 177.04C1128.77 111.514 1222.04 169.075 1275.91 201.604C1304.91 219.118 1335.86 243.582 1371.84 251.644C1392.7 256.325 1417.09 253.713 1438.85 255.701C1504.81 261.727 1566.11 288.849 1594.02 340.268C1606.92 364.043 1611.5 391.058 1616.89 417.351C1622.41 444.266 1629.77 470.87 1633.74 498.169C1636.91 519.962 1638.48 546.433 1614.73 563.527C1584.81 585.074 1537.19 594.523 1502.22 602.374Z" stroke="#5ACEF2" stroke-width="5"/>
<path fill-rule="evenodd" clip-rule="evenodd" d="M1479.71 581.423C1397.19 594.017 1310.3 588.713 1244.43 550.605C1209.51 530.396 1180.42 502.766 1152.02 476.41C1119.83 446.534 1091.26 413.479 1069.75 376.925C1042.96 331.414 1006.06 255.345 1064.63 205.154C1122.77 155.337 1205.66 197.583 1253.39 223.032C1283.97 239.354 1313.39 258.03 1345.61 272.534C1363.08 280.4 1381.5 284.651 1400.5 289.774C1453.1 303.895 1501.52 333.697 1534.77 369.935C1567 405.056 1593.23 453.468 1603.45 499.203C1607.87 518.934 1604.54 535.397 1583.22 549.61C1553.57 569.344 1513.79 576.225 1479.71 581.423Z" stroke="#F1B170" stroke-width="5"/>
<path fill-rule="evenodd" clip-rule="evenodd" d="M1449.7 563.432C1376.42 572.781 1302.56 562.295 1244.4 528.958C1179.2 491.589 1128.6 431.331 1092.48 372.164C1073.29 340.712 1027.98 273.909 1074.74 237.296C1121.51 200.683 1192 231.663 1231.27 249.97C1278.87 272.209 1326.26 297.615 1371.25 323.845C1410.36 346.627 1450.88 371.379 1484.78 399.134C1503.97 414.763 1521.27 432.02 1536.49 450.703C1547.71 464.553 1563.18 481.727 1565.16 499.809C1570.14 545.422 1484.74 558.964 1449.7 563.432Z" stroke="#FF8062" stroke-width="5"/>
<path fill-rule="evenodd" clip-rule="evenodd" d="M1417.95 539.288C1277.67 552.332 1175.98 468.91 1116.76 374.505C1103 352.566 1060.35 292.552 1094.63 265.014C1127.87 238.321 1187.77 262.938 1216.06 274.37C1303.74 309.797 1379.45 365.441 1453.29 417.4C1476.34 433.618 1523.46 460.849 1518.11 493.32C1512.28 528.586 1447.03 536.577 1417.95 539.288Z" stroke="#5ACEF2" stroke-width="5"/>
<path fill-rule="evenodd" clip-rule="evenodd" d="M1380.79 513.874C1275.85 519.009 1190.86 453.792 1144.62 382.222C1133.3 364.691 1102.04 321.077 1123.09 297.018C1142.55 274.756 1189.47 293.897 1207.84 300.76C1248.75 316.035 1285.95 338.243 1322.02 360.433C1355.38 380.945 1389.43 401.56 1419.81 424.861C1435.81 437.137 1468.44 459.203 1459.33 483.084C1449.54 508.79 1404.09 512.733 1380.79 513.874Z" stroke="#5ACEF2" stroke-width="5"/>
<path fill-rule="evenodd" clip-rule="evenodd" d="M1339.44 486.017C1269.76 486.184 1208.08 441.153 1175.66 393.426C1166.94 380.581 1146.56 353.381 1158.66 335.464C1169.81 318.966 1198.46 328.587 1211.58 332.711C1269.71 350.988 1328.87 387.203 1370.81 424.848C1381.36 434.314 1401.35 450.951 1393.09 467.641C1384.61 484.767 1355.44 485.981 1339.44 486.017Z" stroke="#5BE7C3" stroke-width="5"/>
<path fill-rule="evenodd" clip-rule="evenodd" d="M1298.94 455.224C1263.79 453.818 1228.8 429.449 1211.57 404.98C1199.46 387.758 1195.56 363.173 1228.24 370.132C1260.67 377.055 1295.97 398.958 1316.13 421.073C1331.51 437.947 1329.13 456.429 1298.94 455.224Z" stroke="#F1B170" stroke-width="5"/>
<path fill-rule="evenodd" clip-rule="evenodd" d="M1880.78 1394.79C1820.66 1417.59 1767.44 1466.75 1701.15 1476.16C1646.71 1483.9 1622.94 1431.73 1588.3 1407.84C1560.79 1388.86 1523.26 1386.07 1487.29 1383.48C1454.99 1381.14 1422.32 1380.38 1390.23 1377.22C1369.49 1375.16 1329.51 1373.21 1322.19 1355.04C1315.17 1337.65 1336.32 1311.66 1348.56 1295.62C1364.53 1274.7 1382.42 1254.79 1398.86 1234.14C1426.59 1199.32 1443.47 1163.52 1457.55 1124.43C1473.56 1079.95 1488.4 1035.26 1502.07 990.359C1512.19 957.279 1522.1 924.075 1534.51 891.298C1542.31 870.737 1555.05 826.981 1579.86 817.77C1591.7 813.375 1608.19 817.804 1619.94 820.562C1639.82 825.227 1658.87 831.863 1677.6 838.651C1712.51 851.293 1746.54 865.327 1780.79 878.995C1825.25 896.736 1868.67 913.335 1916.34 925.803C1965.68 938.676 2015.87 949.862 2065.7 961.782C2099.46 969.851 2136.55 976.684 2162.69 996.532C2195.38 1021.41 2183.07 1056.07 2194.77 1089.01C2204.83 1117.34 2124.16 1144.34 2103.25 1156.02C2082.07 1167.8 2064.03 1183.36 2042.6 1194.65C2015.86 1208.73 1987.09 1219.25 1958.99 1230.55C1924.61 1244.36 1891.66 1256.87 1889.48 1292.16C1888.25 1312.24 1893.49 1331.57 1895.51 1351.15C1896.81 1363.84 1899.78 1387.59 1880.78 1394.79Z" stroke="#FF8062" stroke-width="5"/>
<path fill-rule="evenodd" clip-rule="evenodd" d="M1864.98 1384.83C1815.42 1406.22 1756.96 1447.31 1698.66 1449.79C1648.84 1451.92 1626.96 1409.83 1592.66 1388.6C1564.36 1371.08 1528.7 1371.67 1493.12 1370.71C1464.57 1369.94 1435.89 1369.56 1407.65 1367.17C1386.84 1365.41 1352.2 1363.77 1342.27 1347.97C1333.35 1333.77 1353.88 1307.58 1364.23 1294.02C1379.35 1274.23 1396.83 1255.64 1413.74 1236.86C1443.42 1203.88 1469.23 1171.77 1485.84 1133.26C1502.52 1094.58 1511.37 1055.69 1520.92 1016.16C1528.39 985.23 1536.39 954.255 1546.87 923.642C1554.67 900.84 1563.64 868.873 1586.06 851.581C1603.79 837.897 1648.85 858.167 1664.07 863.442C1695.38 874.308 1725.63 886.887 1755.75 899.554C1792.47 915 1826.03 932.512 1865.53 943.579C1936.15 963.38 2018.11 971.588 2078.54 1008.14C2114.99 1030.19 2134.04 1062.56 2142.91 1098.61C2146.43 1112.89 2123.96 1124.8 2110.78 1131.55C2088.9 1142.78 2065.7 1151.63 2043.48 1162.23C2022.68 1172.15 2003.87 1184.2 1984.08 1195.61C1964.03 1207.15 1942.47 1216.19 1921.92 1226.81C1909.15 1233.39 1894.19 1240.75 1886.15 1252.16C1877.83 1263.96 1877.82 1278.45 1878.34 1290.91C1879.38 1314.29 1899.96 1369.73 1864.98 1384.83Z" stroke="#5BE7C3" stroke-width="5"/>
<path fill-rule="evenodd" clip-rule="evenodd" d="M1837.28 1374.65C1792.6 1396.55 1737.24 1424.6 1687.02 1419.9C1645.97 1416.07 1625.54 1383.45 1593.52 1366.49C1566.9 1352.39 1533.83 1355.43 1501.99 1355.21C1475.87 1355.03 1449.63 1354.83 1423.97 1352.43C1404.5 1350.61 1378.3 1348.66 1366.83 1335.15C1357.02 1323.6 1373.7 1300.44 1382.04 1289.02C1396.25 1269.57 1413.58 1251.63 1430.66 1233.85C1458.61 1204.77 1489.36 1176.18 1508.38 1142.34C1526.83 1109.47 1532.7 1076.27 1540.35 1041.84C1546.22 1015.46 1552.66 989.029 1561.6 962.934C1568.46 942.9 1576.29 918.32 1594.14 902.682C1609.53 889.177 1637.28 899.367 1653.19 903.714C1679.45 910.896 1704.57 920.331 1729.69 929.508C1756.79 939.416 1782.97 951.787 1810.38 960.944C1868.04 980.189 1927.9 990.546 1978.11 1021.86C2010.63 1042.14 2044.68 1072.96 2053.26 1107.8C2059.42 1132.86 1993.72 1154.97 1973.75 1164.86C1941.11 1181.05 1908.04 1201.42 1880.95 1224.5C1857.75 1244.31 1858.14 1271.16 1860.1 1295.27C1861.31 1310.38 1864.51 1325.52 1863.5 1340.93C1862.32 1358.78 1856 1365.47 1837.28 1374.65Z" stroke="#5ACEF2" stroke-width="5"/>
<path fill-rule="evenodd" clip-rule="evenodd" d="M1809.41 1365.91C1771.19 1383.18 1724.47 1399.43 1683.48 1392.6C1647.57 1386.6 1628.82 1359.49 1597.6 1346.71C1573.25 1336.74 1541.02 1341.07 1513.56 1340.93C1479.99 1340.77 1419.76 1345.34 1398.58 1321.81C1378.89 1299.92 1435.26 1249.02 1451.6 1232.55C1477.46 1206.48 1507.22 1181.73 1529.55 1153.4C1548.78 1129.01 1555.01 1103.43 1561.8 1076.23C1570.49 1041.52 1577.43 991.117 1608.71 962.871C1632.02 941.819 1685.81 963.113 1709.24 968.541C1733.72 974.227 1760.71 975.397 1784.65 981.749C1822.42 991.774 1859.06 1016.96 1887.79 1038.3C1915.73 1059.05 1948.57 1087.25 1958.66 1118.66C1965.29 1139.3 1928.33 1157.14 1911.16 1168.3C1886.78 1184.22 1865.91 1201.19 1854.26 1225.56C1842.39 1250.36 1841.46 1274.85 1842.01 1300.03C1842.32 1312.94 1844.07 1327.17 1839.98 1340.31C1835.6 1354.79 1824.1 1359.27 1809.41 1365.91Z" stroke="#F1B170" stroke-width="5"/>
<path fill-rule="evenodd" clip-rule="evenodd" d="M1779.36 1353.83C1745.35 1366.03 1706.82 1372.85 1673.77 1363.52C1646.23 1355.75 1629.99 1333.82 1602.21 1326.9C1580.22 1321.42 1553.23 1324.37 1529.82 1323.86C1501.14 1323.26 1452.23 1325.44 1434.68 1304.36C1417.58 1283.78 1458.31 1245.25 1474.13 1229.21C1497.35 1205.71 1523.17 1184.13 1546.26 1160.54C1564.38 1142.04 1573.85 1124.05 1581.77 1101.79C1591.08 1075.66 1599.29 1040.95 1622.87 1020.21C1639.96 1005.24 1678.58 1012.38 1698.58 1012.8C1712.02 1013.07 1725.5 1012.89 1739.1 1010.53C1749.68 1008.7 1758.95 1005.53 1769.36 1007.59C1795.57 1012.79 1808.76 1040.32 1822.89 1057.11C1841.64 1079.41 1862.25 1102.82 1874.08 1128.99C1881.38 1145.07 1865.84 1160.29 1856.19 1174.49C1844.78 1191.28 1839.4 1211.13 1832.75 1229.18C1823.94 1253 1821.55 1276.31 1819.18 1300.39C1818.11 1311.25 1817.71 1323.69 1811.5 1334.07C1805.07 1344.88 1791.64 1349.43 1779.36 1353.83Z" stroke="#FF8062" stroke-width="5"/>
<path fill-rule="evenodd" clip-rule="evenodd" d="M1751.44 1339.85C1721.73 1346.96 1690.77 1346.69 1664.35 1336.82C1644.07 1329.26 1628.98 1314.92 1606.53 1311.1C1585.6 1307.55 1563.39 1307.85 1541.89 1306.45C1519.16 1304.96 1481.74 1304.07 1469.17 1286.12C1455.63 1266.78 1482.66 1238.24 1497.64 1222.44C1516.58 1202.47 1538.28 1184.63 1558.46 1165.59C1573.47 1151.32 1586.17 1135.46 1596.15 1118.53C1606.69 1100.76 1615 1078.83 1633.39 1065.08C1649.68 1052.92 1675.56 1055.16 1694.78 1050.23C1715.3 1044.96 1734.88 1033.97 1755.82 1038.56C1799.01 1048.03 1812.82 1106.2 1825.18 1137.83C1837.41 1169.03 1825.15 1202.16 1813.99 1235.07C1806.62 1256.8 1801.58 1278.49 1795.29 1300.31C1788.87 1322.56 1777.59 1333.59 1751.44 1339.85Z" stroke="#5ACEF2" stroke-width="5"/>
<path fill-rule="evenodd" clip-rule="evenodd" d="M1727.9 1325.96C1683.07 1331.33 1650.12 1309.13 1611.04 1298.91C1579.05 1290.55 1521.3 1296.57 1503.47 1269.38C1483.24 1238.5 1546.01 1192.76 1568.8 1171.17C1594.08 1147.22 1610.04 1115.13 1638.3 1093.92C1653.14 1082.78 1670.28 1081.47 1687.93 1078.1C1707.31 1074.4 1726.84 1069.82 1745.29 1074.67C1781.6 1084.23 1795.7 1123.59 1806.79 1151.59C1818.28 1180.58 1807.84 1213.72 1796.51 1244.27C1784.52 1276.66 1773.87 1320.44 1727.9 1325.96Z" stroke="#5ACEF2" stroke-width="5"/>
<path fill-rule="evenodd" clip-rule="evenodd" d="M1710.81 1313.85C1677.41 1313.67 1645.15 1299.49 1615.8 1289.14C1591.32 1280.49 1547.34 1277.61 1536.03 1254.96C1522.74 1228.34 1557.09 1196.76 1577.94 1176.8C1598.41 1157.16 1618.52 1132.28 1643.13 1116.58C1668.75 1100.22 1712.33 1103.09 1737.81 1111.69C1766.22 1121.28 1784.83 1147.11 1792.94 1172.13C1801.46 1198.32 1791.92 1228.67 1780.18 1255.13C1767.64 1283.41 1749.59 1314.08 1710.81 1313.85Z" stroke="#FF8062" stroke-width="5"/>
<path fill-rule="evenodd" clip-rule="evenodd" d="M1699.79 1300.83C1671.52 1299.34 1644.25 1288.84 1619.72 1278.93C1600.79 1271.29 1569.65 1261.18 1562.31 1242.88C1554.24 1222.75 1568.32 1198.08 1586.23 1182.38C1603.91 1166.91 1626.65 1149.11 1648.79 1139.7C1697.01 1119.21 1771.31 1151.99 1781.27 1193.3C1790.71 1232.46 1756.12 1303.82 1699.79 1300.83Z" stroke="#5ACEF2" stroke-width="5"/>
<path fill-rule="evenodd" clip-rule="evenodd" d="M1692.04 1287.93C1654.92 1285.18 1596.75 1266.87 1583.92 1234.98C1569.2 1198.38 1616.42 1170.66 1654.85 1162.14C1694.07 1153.42 1763.79 1176.42 1768.87 1213.15C1773.83 1248.99 1736.06 1291.17 1692.04 1287.93Z" stroke="#5BE7C3" stroke-width="5"/>
<path fill-rule="evenodd" clip-rule="evenodd" d="M1681.54 1275.13C1650.41 1272.69 1607.61 1258.9 1596.76 1232.22C1583.83 1200.42 1626.78 1185.48 1656.03 1183.11C1686.41 1180.66 1745.75 1196.97 1748.57 1227.9C1751.29 1257.99 1711.38 1277.46 1681.54 1275.13Z" stroke="#FF8062" stroke-width="5"/>
</svg>
